<?xml version="1.0" encoding="utf-8"?>
<!DOCTYPE svg PUBLIC "-//W3C//DTD SVG 1.1//EN" "http://www.w3.org/Graphics/SVG/1.1/DTD/svg11.dtd">
<svg version="1.1" id="Layer_1" xmlns="http://www.w3.org/2000/svg" xmlns:xlink="http://www.w3.org/1999/xlink" x="0px" y="0px"
	 viewBox="0 0 400 400" enable-background="new 0 0 400 400" xml:space="preserve">
<circle fill="#E5FF1F" cx="200" cy="200" r="200"/>
<g>
	<path d="M126.166,96.635l-8.119,50.998l-8.119-50.998c-15.857,5.382-27.68,26.163-27.68,50.998
		c0,28.922,16.028,52.367,35.799,52.367c19.771,0,35.799-23.445,35.799-52.367C153.846,122.798,142.024,102.017,126.166,96.635z"/>
	<path d="M290.072,96.635l-8.119,50.998l-8.119-50.998c-15.858,5.382-27.68,26.163-27.68,50.998
		c0,28.922,16.027,52.368,35.799,52.368c19.771,0,35.799-23.446,35.799-52.368C317.752,122.798,305.93,102.017,290.072,96.635z"/>
</g>
<circle cx="200" cy="307.775" r="31.953"/>
</svg>
